<?xml version="1.0" encoding="UTF-8"?>
<svg xmlns="http://www.w3.org/2000/svg" viewBox="0 0 74 74" width="512" height="512"><g id="Numbers"><text transform="translate(31.994 -17.877)" font-size="18" fill="red" font-family="ArialMT, Arial">7<tspan x="-5.005" y="124">17</tspan><tspan x="-5.005" y="248">27</tspan><tspan x="-5.005" y="372">37</tspan><tspan x="-5.005" y="496">47</tspan><tspan x="-5.005" y="620">57</tspan><tspan x="-5.005" y="744">67</tspan><tspan x="-5.005" y="868">77</tspan><tspan x="-5.005" y="992">87</tspan><tspan x="-5.005" y="1116">97</tspan><tspan x="-10.011" y="1240">107</tspan><tspan x="-9.343" y="1364" letter-spacing="-0.074em">1</tspan><tspan x="-0.668" y="1364">17</tspan><tspan x="-10.011" y="1488">127</tspan><tspan x="-10.011" y="1612">137</tspan><tspan x="-10.011" y="1736">147</tspan><tspan x="-10.011" y="1860">157</tspan><tspan x="-10.011" y="1984">167</tspan><tspan x="-10.011" y="2108">177</tspan><tspan x="-10.011" y="2232">187</tspan><tspan x="-10.011" y="2356">197</tspan><tspan x="-10.011" y="2480">207</tspan><tspan x="-10.011" y="2604">217</tspan><tspan x="-10.011" y="2728">227</tspan><tspan x="-10.011" y="2852">237</tspan><tspan x="-10.011" y="2976">247</tspan><tspan x="-10.011" y="3100">257</tspan><tspan x="-10.011" y="3224">267</tspan><tspan x="-10.011" y="3348">277</tspan><tspan x="-10.011" y="3472">287</tspan><tspan x="-10.011" y="3596">297</tspan></text></g><g id="Icons"><path d="M57,61H17a4,4,0,0,1-4-4V17a4,4,0,0,1,4-4H57a4,4,0,0,1,4,4V57A4,4,0,0,1,57,61ZM17,15a2,2,0,0,0-2,2V57a2,2,0,0,0,2,2H57a2,2,0,0,0,2-2V17a2,2,0,0,0-2-2Z"/><path d="M53,39.45a1,1,0,0,1-1-1v-2.9a1,1,0,0,1,2,0v2.9A1,1,0,0,1,53,39.45Z"/><path d="M51,54H23a3,3,0,0,1-3-3V23a3,3,0,0,1,3-3H51a3,3,0,0,1,3,3v5.55a1,1,0,0,1-2,0V23a1,1,0,0,0-1-1H23a1,1,0,0,0-1,1V51a1,1,0,0,0,1,1H51a1,1,0,0,0,1-1V45.45a1,1,0,0,1,2,0V51A3,3,0,0,1,51,54Z"/><path d="M44,15a1,1,0,0,1-1-1V9.375a1,1,0,0,1,.441-.83L46.062,6.78V3a1,1,0,0,1,2,0V7.312a1,1,0,0,1-.441.83L45,9.907V14A1,1,0,0,1,44,15Z"/><path d="M50.469,15a1,1,0,0,1-1-1V9.375a1,1,0,0,1,.441-.83L52.531,6.78V3a1,1,0,0,1,2,0V7.312a1,1,0,0,1-.441.83L51.469,9.907V14A1,1,0,0,1,50.469,15Z"/><path d="M23.53,15a1,1,0,0,1-1-1V9.907L19.909,8.142a1,1,0,0,1-.441-.83V3a1,1,0,0,1,2,0V6.78l2.621,1.765a1,1,0,0,1,.441.83V14A1,1,0,0,1,23.53,15Z"/><path d="M30,15a1,1,0,0,1-1-1V9.907L26.379,8.142a1,1,0,0,1-.441-.83V3a1,1,0,0,1,2,0V6.78l2.621,1.765a1,1,0,0,1,.441.83V14A1,1,0,0,1,30,15Z"/><path d="M37,15a1,1,0,0,1-1-1V2.9a1,1,0,0,1,2,0V14A1,1,0,0,1,37,15Z"/><path d="M47.062,72a1,1,0,0,1-1-1V67.22l-2.621-1.765a1,1,0,0,1-.441-.83V60a1,1,0,0,1,2,0v4.093l2.621,1.765a1,1,0,0,1,.441.83V71A1,1,0,0,1,47.062,72Z"/><path d="M53.531,72a1,1,0,0,1-1-1V67.22L49.91,65.455a1,1,0,0,1-.441-.83V60a1,1,0,0,1,2,0v4.093l2.621,1.765a1,1,0,0,1,.441.83V71A1,1,0,0,1,53.531,72Z"/><path d="M20.468,72a1,1,0,0,1-1-1V66.688a1,1,0,0,1,.441-.83l2.621-1.765V60a1,1,0,0,1,2,0v4.625a1,1,0,0,1-.441.83L21.468,67.22V71A1,1,0,0,1,20.468,72Z"/><path d="M26.938,72a1,1,0,0,1-1-1V66.688a1,1,0,0,1,.441-.83L29,64.093V60a1,1,0,0,1,2,0v4.625a1,1,0,0,1-.441.83L27.938,67.22V71A1,1,0,0,1,26.938,72Z"/><path d="M37,72.1a1,1,0,0,1-1-1V60a1,1,0,0,1,2,0V71.1A1,1,0,0,1,37,72.1Z"/><path d="M71,48.063H66.688a1,1,0,0,1-.83-.441L64.093,45H60a1,1,0,0,1,0-2h4.625a1,1,0,0,1,.829.442l1.766,2.621H71a1,1,0,0,1,0,2Z"/><path d="M71,54.532H66.688a1,1,0,0,1-.83-.442l-1.765-2.621H60a1,1,0,0,1,0-2h4.625a1,1,0,0,1,.829.442l1.766,2.621H71a1,1,0,0,1,0,2Z"/><path d="M64.625,24.531H60a1,1,0,0,1,0-2h4.093l1.765-2.621a1,1,0,0,1,.83-.442H71a1,1,0,0,1,0,2H67.22l-1.766,2.621A1,1,0,0,1,64.625,24.531Z"/><path d="M64.625,31H60a1,1,0,0,1,0-2h4.093l1.765-2.621a1,1,0,0,1,.83-.441H71a1,1,0,0,1,0,2H67.22l-1.766,2.621A1,1,0,0,1,64.625,31Z"/><path d="M71.1,38H60a1,1,0,0,1,0-2H71.1a1,1,0,0,1,0,2Z"/><path d="M7.312,48.063H3a1,1,0,0,1,0-2H6.78l1.766-2.621A1,1,0,0,1,9.375,43H14a1,1,0,0,1,0,2H9.907L8.142,47.622A1,1,0,0,1,7.312,48.063Z"/><path d="M7.312,54.532H3a1,1,0,0,1,0-2H6.78l1.766-2.621a1,1,0,0,1,.829-.442H14a1,1,0,0,1,0,2H9.907L8.142,54.09A1,1,0,0,1,7.312,54.532Z"/><path d="M14,24.531H9.375a1,1,0,0,1-.829-.442L6.78,21.468H3a1,1,0,0,1,0-2H7.312a1,1,0,0,1,.83.442l1.765,2.621H14a1,1,0,0,1,0,2Z"/><path d="M14,31H9.375a1,1,0,0,1-.829-.441L6.78,27.938H3a1,1,0,0,1,0-2H7.312a1,1,0,0,1,.83.441L9.907,29H14a1,1,0,0,1,0,2Z"/><path d="M14,38H2.9a1,1,0,0,1,0-2H14a1,1,0,0,1,0,2Z"/></g></svg>
