<svg id="_x31_" height="512" viewBox="0 0 24 24" width="512" xmlns="http://www.w3.org/2000/svg"><path d="m11.5 23h-7c-2.481 0-4.5-2.019-4.5-4.5v-10c0-1.378 1.121-2.5 2.5-2.5h11c1.379 0 2.5 1.122 2.5 2.5v3.03c0 .276-.224.5-.5.5s-.5-.224-.5-.5v-3.03c0-.827-.673-1.5-1.5-1.5h-11c-.827 0-1.5.673-1.5 1.5v10c0 1.93 1.57 3.5 3.5 3.5h7c.276 0 .5.224.5.5s-.224.5-.5.5z"/><path d="m11.5 10c-.276 0-.5-.224-.5-.5v-5.5c0-1.654-1.346-3-3-3s-3 1.346-3 3v5.5c0 .276-.224.5-.5.5s-.5-.224-.5-.5v-5.5c0-2.206 1.794-4 4-4s4 1.794 4 4v5.5c0 .276-.224.5-.5.5z"/><path d="m5.5 10h-2c-.276 0-.5-.224-.5-.5s.224-.5.5-.5h2c.276 0 .5.224.5.5s-.224.5-.5.5z"/><path d="m12.5 10h-2c-.276 0-.5-.224-.5-.5s.224-.5.5-.5h2c.276 0 .5.224.5.5s-.224.5-.5.5z"/><path d="m16 18c-1.103 0-2-.897-2-2s.897-2 2-2 2 .897 2 2-.897 2-2 2zm0-3c-.552 0-1 .449-1 1s.448 1 1 1 1-.449 1-1-.448-1-1-1z"/><path d="m22 24c-1.103 0-2-.897-2-2s.897-2 2-2 2 .897 2 2-.897 2-2 2zm0-3c-.552 0-1 .449-1 1s.448 1 1 1 1-.449 1-1-.448-1-1-1z"/><path d="m15.5 24c-.107 0-.216-.034-.307-.105-.219-.169-.258-.483-.088-.702l7-9c.17-.218.484-.257.701-.087.219.169.258.483.088.702l-7 9c-.098.126-.246.192-.394.192z"/></svg>