<svg height="512" viewBox="0 0 512 512" width="512" xmlns="http://www.w3.org/2000/svg"><g id="outline"><path d="m488.00012 160h-360v-136a8.00039 8.00039 0 0 0 -8-8h-96a8.00039 8.00039 0 0 0 -8 8v72a8.00039 8.00039 0 0 0 8 8h16a8.00039 8.00039 0 0 0 8-8 8 8 0 1 1 16 0 8.00039 8.00039 0 0 0 8 8h8v384a8.00039 8.00039 0 0 0 8 8h32a8.00039 8.00039 0 0 0 8-8v-32h24a8.00039 8.00039 0 0 0 8-8v-24h40v32a8.00039 8.00039 0 0 0 8 8h64a8.00039 8.00039 0 0 0 8-8 8 8 0 0 1 16 0 8.00039 8.00039 0 0 0 8 8h64a8.00039 8.00039 0 0 0 8-8v-32h112a8.00039 8.00039 0 0 0 8-8v-248a8.00039 8.00039 0 0 0 -8-8zm-360 144h32v24h-32zm32-16h-32v-24h32zm-32 56h32v24h-32zm32-96h-32v-24h32zm-81.37112-160a24.0021 24.0021 0 0 0 -45.25781 0h-1.3711v-24h48v24zm33.37109 392h-16v-424a8.00039 8.00039 0 0 0 -8-8h-56v-16h80zm32-40h-16v-16h16zm8-32h-24v-24h32v24zm64 16h16v24h-16zm72 8a24.04163 24.04163 0 0 0 -22.6289 16h-17.3711v-24h80v24h-17.37109a24.04166 24.04166 0 0 0 -22.62888-16zm72 16h-16v-24h16zm120-40h-304v-192a8.00039 8.00039 0 0 0 -8-8h-40v-32h352z"/><path d="m240.00012 272h40a8.00039 8.00039 0 0 0 8-8v-64a8.00039 8.00039 0 0 0 -8-8h-40a8.00039 8.00039 0 0 0 -8 8v64a8.00039 8.00039 0 0 0 8 8zm32-16h-24v-16h24zm-24-48h24v16h-24z"/><path d="m384.00012 240a24 24 0 1 0 -24-24 24.0275 24.0275 0 0 0 24 24zm0-32a8 8 0 1 1 -8 8 8.00917 8.00917 0 0 1 8-8z"/><path d="m328.00012 240a24 24 0 1 0 -24-24 24.0275 24.0275 0 0 0 24 24zm0-32a8 8 0 1 1 -8 8 8.00917 8.00917 0 0 1 8-8z"/><path d="m208.00012 368a8.00039 8.00039 0 0 0 8 8h8v16h16v-16h8v16h16v-16h8a8.00039 8.00039 0 0 0 8-8v-8h16v-16h-16v-8h16v-16h-16v-8a8.00039 8.00039 0 0 0 -8-8h-8v-16h-16v16h-8v-16h-16v16h-8a8.00039 8.00039 0 0 0 -8 8v8h-16v16h16v8h-16v16h16zm16-48h40v40h-40z"/><path d="m192 200h24v16h-24z"/><path d="m192 232h24v16h-24z"/><path d="m192 264h24v16h-24z"/><path d="m395.94153 273.03809a8.00609 8.00609 0 0 0 -8.05762.10156l-40 24a8.00153 8.00153 0 0 0 -3.88379 6.86035h-24a8.00039 8.00039 0 0 0 -8 8v32a8.00039 8.00039 0 0 0 8 8h24a8.00153 8.00153 0 0 0 3.88379 6.86035l40 24a8.00029 8.00029 0 0 0 12.11621-6.86035v-96a8.00145 8.00145 0 0 0 -4.05859-6.96191zm-67.94141 62.96191v-16h16v16zm56 25.87012-24-14.39942v-38.9414l24-14.39942z"/><path d="m422.62805 351.0293a32.03851 32.03851 0 0 0 0-45.25489l-11.31445 11.31446a16.019 16.019 0 0 1 0 22.62793z"/><path d="m433.94153 362.34277 11.3125 11.31446a64.00025 64.00025 0 0 0 .001-90.51075l-11.31445 11.31446a47.999 47.999 0 0 1 .001 67.88183z"/></g></svg>